<?xml version="1.0" encoding="UTF-8" standalone="no"?>
<svg width="400" height="200" viewBox="0 0 400 200" xmlns="http://www.w3.org/2000/svg">
  <!-- Simple car outline -->
  <path d="M 80,140 
           C 80,130 90,120 100,120 
           L 140,80 
           C 170,60 230,60 260,80 
           L 300,120 
           C 310,120 320,130 320,140 
           L 320,160 
           C 320,165 315,170 310,170 
           L 290,170 
           C 285,170 280,165 280,160 
           L 280,155 
           L 120,155 
           L 120,160 
           C 120,165 115,170 110,170 
           L 90,170 
           C 85,170 80,165 80,160 
           Z" 
        fill="none" stroke="#333" stroke-width="2"/>
  
  <!-- Front windshield -->
  <path d="M 150,80 L 250,80 L 270,120 L 130,120 Z" 
        fill="none" stroke="#333" stroke-width="1"/>
        
  <!-- Wheels -->
  <circle cx="110" cy="170" r="20" fill="none" stroke="#333" stroke-width="2"/>
  <circle cx="290" cy="170" r="20" fill="none" stroke="#333" stroke-width="2"/>
</svg> 